<?xml version="1.0" encoding="UTF-8" standalone="no"?>
<!DOCTYPE svg PUBLIC "-//W3C//DTD SVG 1.1//EN" "http://www.w3.org/Graphics/SVG/1.1/DTD/svg11.dtd">
<svg width="100%" height="100%" viewBox="0 0 1574 240" version="1.1" xmlns="http://www.w3.org/2000/svg" xmlns:xlink="http://www.w3.org/1999/xlink" xml:space="preserve" xmlns:serif="http://www.serif.com/" style="fill-rule:evenodd;clip-rule:evenodd;stroke-linejoin:round;stroke-miterlimit:1.41421;">
    <g transform="matrix(1.33333,0,0,1.33333,0,0)">
        <g transform="matrix(1,0,0,1,-25.975,-145.155)">
            <g transform="matrix(1,0,0,1,28.0687,165.797)">
                <text x="0px" y="139.844px" style="font-family:'Phi-Caps-Thin-Condensed', 'Phi Caps Thin Condensed';font-weight:100;font-stretch:condensed;font-size:200px;">A<tspan x="91.797px 154.59px 259.57px 343.652px 444.629px 520.313px 607.617px 711.621px 800.488px 880.859px " y="139.844px 139.844px 139.844px 139.844px 139.844px 139.844px 139.844px 139.844px 139.844px 139.844px ">LOHA HOUSE</tspan></text>
            </g>
            <g transform="matrix(1,0,0,1,1008.39,165.381)">
                <g>
                    <text x="0px" y="33.213px" style="font-family:'Phi-Caps-Thin-Condensed', 'Phi Caps Thin Condensed';font-weight:100;font-stretch:condensed;font-size:47.5px;">A<tspan x="20.804px " y="33.213px ">S</tspan></text>
                    <text x="54.663px" y="33.213px" style="font-family:'Phi-Caps-Thin-Condensed', 'Phi Caps Thin Condensed';font-weight:100;font-stretch:condensed;font-size:45.833px;">LE<tspan x="90.94px 111.977px 132.231px 138.944px 158.974px " y="33.213px 33.213px 33.213px 33.213px 33.213px ">ADING</tspan></text>
                </g>
            </g>
            <g transform="matrix(1,0,0,1,1009.56,219.357)">
                <text x="0px" y="30.591px" style="font-family:'Phi-Caps-Thin-Condensed', 'Phi Caps Thin Condensed';font-weight:100;font-stretch:condensed;font-size:43.75px;">H<tspan x="18.393px 38.474px 56.995px 78.891px 101.855px 121.402px " y="30.591px 30.591px 30.591px 30.591px 30.591px 30.591px ">ARMONI</tspan>ZE<tspan x="164.255px " y="30.591px ">R</tspan></text>
            </g>
            <g transform="matrix(1,0,0,1,0.719818,8.81329)">
                <rect x="1008.57" y="261.493" width="175.461" height="33.579" style="fill:rgb(20,148,67);"/>
            </g>
            <g transform="matrix(1,0,0,1,5.79931,11.4999)">
                <text x="1022.41px" y="285.211px" style="font-family:'HiraKakuProN-W3', 'Hiragino Kaku Gothic ProN', sans-serif;font-weight:300;font-size:22.917px;fill:rgb(231,254,245);">アロハハウス</text>
            </g>
        </g>
    </g>
</svg>
